PathFileType	4	(X/Y/Z)	 control3min.trc
DataRate	CameraRate	NumFrames	NumMarkers	Units	OrigDataRate	OrigDataStartFrame	OrigNumFrames
200	200	11	35	m	200	1	1000
Frame#	Time	C7			LSH			RSH			MAN			RASI			LASI			HIPR			HIPL			RPSI			LPSI			COX			RTHI1			RTHI2			RTHI3			RTHI4			RSHA1			RSHA2			RSHA3			RSHA4			RHEEL			RMET5			RMET1			RTOE			LTHI1			LTHI2			LTHI3			LTHI4			LSHA1			LSHA2			LSHA3			LSHA4			LHEEL			LMET5			LMET1			LTOE			
		X1	Y1	Z1	X2	Y2	Z2	X3	Y3	Z3	X4	Y4	Z4	X5	Y5	Z5	X6	Y6	Z6	X7	Y7	Z7	X8	Y8	Z8	X9	Y9	Z9	X10	Y10	Z10	X11	Y11	Z11	X12	Y12	Z12	X13	Y13	Z13	X14	Y14	Z14	X15	Y15	Z15	X16	Y16	Z16	X17	Y17	Z17	X18	Y18	Z18	X19	Y19	Z19	X20	Y20	Z20	X21	Y21	Z21	X22	Y22	Z22	X23	Y23	Z23	X24	Y24	Z24	X25	Y25	Z25	X26	Y26	Z26	X27	Y27	Z27	X28	Y28	Z28	X29	Y29	Z29	X30	Y30	Z30	X31	Y31	Z31	X32	Y32	Z32	X33	Y33	Z33	X34	Y34	Z34	X35	Y35	Z35	
1	0.0050	-0.324538	1.374056	-0.508265	-0.276688	1.348224	-0.688836	-0.244058	1.341469	-0.337803	-0.195072	1.320757	-0.519564	-0.164103	0.925021	-0.402398	-0.188921	0.932788	-0.619617	-0.226496	0.965963	-0.355084	-0.248651	0.979637	-0.646664	-0.336128	0.961359	-0.433827	-0.346446	0.964382	-0.538597	-0.342124	0.970973	-0.488708	-0.268896	0.722749	-0.341433	-0.246210	0.667506	-0.343039	-0.185339	0.687298	-0.333747	-0.200388	0.747044	-0.330111	-0.272327	0.333100	-0.331603	-0.289735	0.294363	-0.337912	-0.231645	0.277218	-0.347262	-0.219314	0.315787	-0.344630	-0.399876	0.080783	-0.381865	-0.253217	0.023223	-0.332434	-0.217238	0.035622	-0.413346	-0.192415	0.027700	-0.418732	-0.273191	0.710025	-0.687600	-0.240050	0.658354	-0.693502	-0.182072	0.688631	-0.692665	-0.208278	0.742265	-0.687476	-0.322150	0.324290	-0.701056	-0.341301	0.288513	-0.697569	-0.283891	0.264339	-0.705933	-0.271529	0.306687	-0.708250	-0.432371	0.085435	-0.652891	-0.299875	0.030241	-0.730890	-0.252833	0.037106	-0.665828	-0.229480	0.027869	-0.669632	
2	0.0100	-0.324620	1.379384	-0.508116	-0.276838	1.354323	-0.688516	-0.244839	1.348262	-0.337807	-0.195107	1.327086	-0.519512	-0.163354	0.930927	-0.402764	-0.188288	0.938649	-0.619566	-0.225364	0.972103	-0.355361	-0.247880	0.986272	-0.646196	-0.335074	0.967340	-0.433844	-0.345510	0.970366	-0.538583	-0.341162	0.976853	-0.488700	-0.269170	0.728753	-0.340853	-0.246917	0.673312	-0.342246	-0.185865	0.692694	-0.333404	-0.200446	0.752526	-0.330010	-0.274259	0.337569	-0.330788	-0.291191	0.298248	-0.337194	-0.232967	0.281951	-0.345882	-0.220896	0.320660	-0.343339	-0.398272	0.084015	-0.381651	-0.252830	0.023653	-0.332473	-0.217118	0.035643	-0.413322	-0.192582	0.027660	-0.418709	-0.274155	0.716303	-0.687858	-0.241513	0.664293	-0.693774	-0.183278	0.694110	-0.693115	-0.208974	0.747901	-0.687895	-0.323633	0.328995	-0.701622	-0.342395	0.293063	-0.698063	-0.284828	0.269409	-0.706807	-0.272851	0.311835	-0.709102	-0.430620	0.089286	-0.653457	-0.299249	0.030768	-0.730907	-0.252540	0.037126	-0.665732	-0.229505	0.027905	-0.669545	
3	0.0150	-0.324746	1.384737	-0.507951	-0.276978	1.360415	-0.688134	-0.245554	1.355020	-0.337856	-0.195164	1.333355	-0.519433	-0.162723	0.936826	-0.403100	-0.187646	0.944413	-0.619471	-0.224338	0.978288	-0.355749	-0.246923	0.992955	-0.645719	-0.334107	0.973282	-0.433965	-0.344589	0.976336	-0.538683	-0.340201	0.982740	-0.488824	-0.269417	0.734729	-0.340219	-0.247569	0.679108	-0.341315	-0.186309	0.698114	-0.332987	-0.200485	0.758078	-0.329899	-0.276024	0.341961	-0.329867	-0.292531	0.302307	-0.336303	-0.234167	0.286717	-0.344449	-0.222460	0.325531	-0.342058	-0.396731	0.087631	-0.381023	-0.252457	0.023989	-0.332515	-0.217023	0.035658	-0.413239	-0.192736	0.027613	-0.418653	-0.275239	0.722548	-0.688042	-0.243073	0.670247	-0.694033	-0.184588	0.699591	-0.693650	-0.209817	0.753567	-0.688338	-0.325042	0.333528	-0.702179	-0.343396	0.297409	-0.698547	-0.285655	0.274351	-0.707669	-0.274099	0.316854	-0.709974	-0.428684	0.093156	-0.654072	-0.298595	0.031310	-0.730908	-0.252225	0.037175	-0.665626	-0.229517	0.027926	-0.669419	
4	0.0200	-0.324879	1.390073	-0.507777	-0.277123	1.366493	-0.687732	-0.246227	1.361754	-0.337925	-0.195300	1.339606	-0.519327	-0.162119	0.942683	-0.403427	-0.187000	0.950128	-0.619360	-0.223345	0.984440	-0.356159	-0.245935	0.999612	-0.645249	-0.333163	0.979199	-0.434114	-0.343711	0.982303	-0.538770	-0.339273	0.988601	-0.488971	-0.269665	0.740695	-0.339581	-0.248211	0.684894	-0.340369	-0.186734	0.703535	-0.332567	-0.200530	0.763625	-0.329781	-0.277757	0.346349	-0.328920	-0.293831	0.306407	-0.335403	-0.235325	0.291483	-0.343005	-0.223997	0.330408	-0.340768	-0.395114	0.091234	-0.380412	-0.252074	0.024328	-0.332534	-0.216928	0.035681	-0.413149	-0.192887	0.027579	-0.418597	-0.276347	0.728784	-0.688211	-0.244654	0.676200	-0.694290	-0.185922	0.705075	-0.694195	-0.210685	0.759229	-0.688785	-0.326445	0.337999	-0.702714	-0.344378	0.301689	-0.699020	-0.286463	0.279245	-0.708528	-0.275345	0.321829	-0.710836	-0.426715	0.097009	-0.654697	-0.297926	0.031864	-0.730896	-0.251925	0.037235	-0.665538	-0.229543	0.027969	-0.669330	
5	0.0250	-0.325037	1.395386	-0.507582	-0.277265	1.372542	-0.687279	-0.246795	1.368423	-0.338046	-0.195472	1.345791	-0.519193	-0.161606	0.948478	-0.403727	-0.186346	0.955732	-0.619215	-0.222450	0.990558	-0.356645	-0.244828	1.006241	-0.644784	-0.332290	0.985060	-0.434344	-0.342844	0.988230	-0.538947	-0.338393	0.994421	-0.489202	-0.269905	0.746616	-0.338910	-0.248815	0.690646	-0.339347	-0.187143	0.708958	-0.332074	-0.200579	0.769188	-0.329648	-0.279375	0.350686	-0.327907	-0.295026	0.310606	-0.334407	-0.236375	0.296249	-0.341521	-0.225475	0.335276	-0.339454	-0.393405	0.094962	-0.379652	-0.251678	0.024628	-0.332534	-0.216835	0.035715	-0.413024	-0.193029	0.027561	-0.418519	-0.277536	0.734992	-0.688333	-0.246302	0.682150	-0.694540	-0.187336	0.710558	-0.694786	-0.211653	0.764896	-0.689242	-0.327803	0.342303	-0.703209	-0.345293	0.305786	-0.699467	-0.287199	0.284017	-0.709379	-0.276553	0.326684	-0.711685	-0.424621	0.100842	-0.655359	-0.297216	0.032450	-0.730859	-0.251636	0.037326	-0.665475	-0.229589	0.028045	-0.669289	
6	0.0300	-0.325197	1.400637	-0.507359	-0.277426	1.378536	-0.686783	-0.247220	1.375001	-0.338219	-0.195846	1.351888	-0.518999	-0.161174	0.954160	-0.404000	-0.185686	0.961208	-0.619042	-0.221661	0.996565	-0.357177	-0.243654	1.012770	-0.644334	-0.331482	0.990848	-0.434645	-0.342029	0.994112	-0.539153	-0.337612	1.000154	-0.489487	-0.270165	0.752484	-0.338232	-0.249405	0.696347	-0.338295	-0.187595	0.714395	-0.331485	-0.200655	0.774725	-0.329491	-0.280906	0.355017	-0.326864	-0.296118	0.314833	-0.333354	-0.237324	0.301014	-0.340010	-0.226849	0.340157	-0.338085	-0.391517	0.098681	-0.378974	-0.251244	0.024949	-0.332504	-0.216726	0.035789	-0.412883	-0.193157	0.027600	-0.418438	-0.278782	0.741157	-0.688412	-0.247998	0.688081	-0.694785	-0.188814	0.716030	-0.695404	-0.212686	0.770544	-0.689700	-0.329134	0.346435	-0.703632	-0.346158	0.309703	-0.699875	-0.287883	0.288663	-0.710217	-0.277750	0.331421	-0.712495	-0.422447	0.104618	-0.656053	-0.296460	0.033090	-0.730789	-0.251401	0.037469	-0.665474	-0.229675	0.028222	-0.669386	
7	0.0350	-0.325358	1.405802	-0.507104	-0.277594	1.384457	-0.686241	-0.247520	1.381452	-0.338413	-0.196304	1.357891	-0.518776	-0.160825	0.959697	-0.404243	-0.185023	0.966521	-0.618836	-0.220985	1.002428	-0.357751	-0.242412	1.019155	-0.643916	-0.330743	0.996544	-0.435015	-0.341234	0.999908	-0.539445	-0.336909	1.005798	-0.489836	-0.270436	0.758258	-0.337564	-0.249980	0.701976	-0.337236	-0.188091	0.719815	-0.330809	-0.200771	0.780207	-0.329304	-0.282348	0.359300	-0.325809	-0.297101	0.319077	-0.332247	-0.238154	0.305747	-0.338472	-0.228121	0.345004	-0.336662	-0.389468	0.102393	-0.378291	-0.250777	0.025267	-0.332444	-0.216600	0.035887	-0.412696	-0.193270	0.027671	-0.418316	-0.280076	0.747264	-0.688449	-0.249732	0.693974	-0.695033	-0.190342	0.721475	-0.696038	-0.213776	0.776161	-0.690153	-0.330422	0.350357	-0.703947	-0.346962	0.313417	-0.700229	-0.288512	0.293148	-0.711038	-0.278924	0.336011	-0.713253	-0.420198	0.108330	-0.656801	-0.295654	0.033807	-0.730678	-0.251208	0.037675	-0.665562	-0.229813	0.028514	-0.669641	
8	0.0400	-0.325508	1.410865	-0.506814	-0.277762	1.390275	-0.685661	-0.247665	1.387733	-0.338631	-0.196780	1.363761	-0.518535	-0.160557	0.965070	-0.404455	-0.184367	0.971666	-0.618609	-0.220441	1.008117	-0.358337	-0.241141	1.025331	-0.643536	-0.330065	1.002129	-0.435444	-0.340460	1.005587	-0.539795	-0.336288	1.011329	-0.490236	-0.270738	0.763913	-0.336922	-0.250547	0.707507	-0.336211	-0.188660	0.725184	-0.330055	-0.200938	0.785588	-0.329087	-0.283718	0.363523	-0.324768	-0.297998	0.323245	-0.331140	-0.238884	0.310417	-0.336914	-0.229269	0.349807	-0.335181	-0.387212	0.106004	-0.377613	-0.250264	0.025603	-0.332368	-0.216438	0.036022	-0.412473	-0.193361	0.027778	-0.418133	-0.281389	0.753290	-0.688451	-0.251475	0.699800	-0.695288	-0.191894	0.726874	-0.696691	-0.214899	0.781717	-0.690581	-0.331669	0.354088	-0.704180	-0.347708	0.316924	-0.700522	-0.289089	0.297463	-0.711836	-0.280074	0.340434	-0.713943	-0.417911	0.111963	-0.657612	-0.294808	0.034640	-0.730534	-0.251062	0.037988	-0.665775	-0.230008	0.028976	-0.670108	
9	0.0450	-0.325636	1.415798	-0.506489	-0.277935	1.395970	-0.685059	-0.247668	1.393800	-0.338896	-0.197255	1.369469	-0.518294	-0.160365	0.970255	-0.404636	-0.183729	0.976621	-0.618369	-0.220028	1.013588	-0.358912	-0.239864	1.031251	-0.643199	-0.329449	1.007583	-0.435920	-0.339636	1.011092	-0.540288	-0.335747	1.016723	-0.490676	-0.271085	0.769405	-0.336327	-0.251131	0.712895	-0.335247	-0.189315	0.730453	-0.329239	-0.201173	0.790839	-0.328833	-0.285023	0.367664	-0.323788	-0.298814	0.327287	-0.330035	-0.239531	0.315008	-0.335359	-0.230300	0.354517	-0.333661	-0.384824	0.109542	-0.376992	-0.249707	0.025962	-0.332301	-0.216221	0.036211	-0.412196	-0.193424	0.027929	-0.417865	-0.282686	0.759198	-0.688419	-0.253190	0.705527	-0.695554	-0.193435	0.732196	-0.697337	-0.216027	0.787185	-0.690970	-0.332857	0.357639	-0.704329	-0.348390	0.320239	-0.700758	-0.289616	0.301613	-0.712599	-0.281185	0.344693	-0.714555	-0.415635	0.115481	-0.658469	-0.293936	0.035634	-0.730386	-0.250941	0.038464	-0.666151	-0.230233	0.029677	-0.670839	
10	0.0500	-0.325736	1.420594	-0.506135	-0.278109	1.401516	-0.684441	-0.247562	1.399630	-0.339175	-0.197734	1.375000	-0.518052	-0.160239	0.975231	-0.404789	-0.183121	0.981367	-0.618117	-0.219748	1.018824	-0.359446	-0.238607	1.036871	-0.642914	-0.328889	1.012888	-0.436430	-0.338847	1.016441	-0.540825	-0.335262	1.021980	-0.491153	-0.271478	0.774711	-0.335814	-0.251748	0.718120	-0.334385	-0.190001	0.735574	-0.328428	-0.201480	0.795921	-0.328545	-0.286268	0.371693	-0.322881	-0.299561	0.331180	-0.328974	-0.240109	0.319497	-0.333833	-0.231247	0.359122	-0.332170	-0.382356	0.113037	-0.376292	-0.249117	0.026346	-0.332259	-0.215943	0.036458	-0.411849	-0.193445	0.028116	-0.417480	-0.283939	0.764940	-0.688346	-0.254832	0.711115	-0.695826	-0.194924	0.737409	-0.697974	-0.217126	0.792528	-0.691314	-0.333972	0.361020	-0.704408	-0.349005	0.323378	-0.700946	-0.290085	0.305584	-0.713311	-0.282235	0.348775	-0.715083	-0.413428	0.118878	-0.659356	-0.293067	0.036835	-0.730292	-0.250796	0.039175	-0.666720	-0.230426	0.030658	-0.671838	
11	0.0550	-0.325811	1.425239	-0.505757	-0.278275	1.406897	-0.683812	-0.247350	1.405198	-0.339457	-0.198119	1.380325	-0.517827	-0.160172	0.979986	-0.404915	-0.182554	0.985885	-0.617859	-0.219591	1.023822	-0.359928	-0.237386	1.042162	-0.642677	-0.328382	1.018025	-0.436963	-0.338022	1.021569	-0.541479	-0.334833	1.027081	-0.491655	-0.271928	0.779805	-0.335395	-0.252407	0.723154	-0.333640	-0.190654	0.740444	-0.327721	-0.201861	0.800801	-0.328228	-0.287455	0.375571	-0.322053	-0.300244	0.334921	-0.327967	-0.240636	0.323849	-0.332355	-0.232151	0.363557	-0.330769	-0.379822	0.116451	-0.375485	-0.248490	0.026762	-0.332262	-0.215590	0.036777	-0.411427	-0.193414	0.028338	-0.416952	-0.285109	0.770466	-0.688236	-0.256356	0.716511	-0.696091	-0.196319	0.742482	-0.698580	-0.218169	0.797707	-0.691600	-0.334992	0.364240	-0.704437	-0.349542	0.326362	-0.701104	-0.290495	0.309375	-0.713962	-0.283203	0.352672	-0.715528	-0.411354	0.122119	-0.660226	-0.292213	0.038308	-0.730325	-0.250560	0.040200	-0.667511	-0.230505	0.031977	-0.673100	
